<?xml version="1.0" standalone="no"?>
<svg
  
  viewBox="0 0 600 600"
  xmlns="http://www.w3.org/2000/svg"
>
  <g transform="translate(300,300)">
    <path d="M144.2,-204C185.7,-168.3,217.5,-124.6,232.5,-76.1C247.6,-27.5,246,26,230.2,74.9C214.5,123.9,184.5,168.3,143.8,199.6C103.1,230.8,51.5,248.9,1.6,246.8C-48.4,244.6,-96.8,222.2,-139.7,191.7C-182.7,161.1,-220.2,122.4,-234.4,76.7C-248.5,30.9,-239.3,-21.9,-225.2,-75.5C-211,-129.1,-191.9,-183.5,-153.6,-220.2C-115.2,-256.9,-57.6,-276,-3.1,-271.6C51.3,-267.3,102.7,-239.6,144.2,-204Z" fill="#FFB4BC" />
  </g>
</svg>
  