<svg xmlns="http://www.w3.org/2000/svg" class="wave" viewBox="0 0 1440 320" preserveAspectRatio="none">
    <path fill="#FFFFFF" fill-opacity="1" d="M0,128L26.7,154.7C53.3,181,107,235,160,245.3C213.3,256,267,224,320,213.3C373.3,203,427,213,480,202.7C533.3,192,587,160,640,138.7C693.3,117,747,107,800,133.3C853.3,160,907,224,960,224C1013.3,224,1067,160,1120,154.7C1173.3,149,1227,203,1280,202.7C1333.3,203,1387,149,1413,122.7L1440,96L1440,320L1413.3,320C1386.7,320,1333,320,1280,320C1226.7,320,1173,320,1120,320C1066.7,320,1013,320,960,320C906.7,320,853,320,800,320C746.7,320,693,320,640,320C586.7,320,533,320,480,320C426.7,320,373,320,320,320C266.7,320,213,320,160,320C106.7,320,53,320,27,320L0,320Z">
<!--<animate repeatCount="indefinite" fill="#FFFFFF" attributeName="d" dur="15s" values=" M0 77 C 473,283 822,-40 1920,116 V 359 H 0 V 67 Z; M0 77 C 473,-40 1222,283 1920,136 V 359 H 0 V 67 Z; M0 77 C 973,260 1722,-53 1920,120 V 359 H 0 V 67 Z; M0 77 C 473,283 822,-40 1920,116 V 359 H 0 V 67 Z "> </animate>-->
    </path>
</svg>
